<svg width="1000" height="1000" viewBox="0 0 1000 1000" fill="none" xmlns="http://www.w3.org/2000/svg">
<path d="M29.4857 450.029C50.4779 195.177 274.095 5.59581 528.947 26.588C772.984 46.6901 957.161 252.582 953.922 493.785C968.247 502.068 977.309 518.094 975.86 535.68C973.857 559.997 952.519 578.087 928.202 576.084C903.884 574.081 885.795 552.743 887.798 528.425C889.093 512.701 898.474 499.587 911.515 492.819C914.228 273.9 746.998 87.104 525.464 68.8561C293.957 49.7872 90.8271 222.003 71.7573 453.509C53.6609 673.205 207.828 867.341 421.457 902.876C430.347 892.007 444.255 885.546 459.308 886.786C483.625 888.79 501.714 910.127 499.711 934.445C497.708 958.762 476.371 976.851 452.053 974.848C433.802 973.345 419.061 960.951 413.687 944.579C178.913 905.126 9.58639 691.617 29.4857 450.029Z" fill="white"/>
<path d="M682.054 365.723C706.453 365.724 726.232 385.503 726.233 409.902C726.233 431.159 711.22 448.905 691.219 453.125L624.467 636.558C630.635 644.155 634.339 653.836 634.339 664.384C634.339 688.784 614.557 708.566 590.157 708.566C565.757 708.566 545.978 688.784 545.978 664.384C545.978 654.445 549.256 645.271 554.795 637.89L489.541 458.732L424.77 636.558C430.939 644.155 434.642 653.836 434.642 664.384C434.642 688.784 414.86 708.566 390.46 708.566C366.06 708.566 346.281 688.784 346.281 664.384C346.282 654.294 349.668 644.998 355.361 637.56L288.296 453.26C267.964 449.297 252.616 431.394 252.616 409.902C252.616 385.502 272.398 365.723 296.798 365.723C321.197 365.724 340.979 385.502 340.98 409.902C340.98 421.999 336.111 432.956 328.235 440.935L389.863 609.758L453.26 435.267C448.216 428.088 445.246 419.343 445.246 409.902C445.246 385.503 465.025 365.724 489.424 365.723C513.824 365.723 533.605 385.502 533.606 409.902C533.606 419.225 530.709 427.869 525.78 434.997L589.567 609.726L650.602 440.924C642.733 432.946 637.872 421.993 637.872 409.902C637.873 385.502 657.654 365.723 682.054 365.723Z" fill="white"/>
<path fill-rule="evenodd" clip-rule="evenodd" d="M493.994 136.013C687.091 138.46 842.874 295.754 842.874 489.431L842.842 493.998C841.638 589.045 802.913 675.05 740.802 737.887C743.909 743.933 745.674 750.782 745.674 758.047C745.674 763.904 744.52 769.49 742.45 774.605L809.899 848.002C813.645 846.969 817.589 846.407 821.663 846.407C846.064 846.407 865.845 866.189 865.845 890.589C865.845 914.99 846.064 934.771 821.663 934.771C797.263 934.771 777.485 914.989 777.485 890.589C777.485 886.048 778.169 881.666 779.441 877.543L709.553 801.49C706.939 801.972 704.246 802.229 701.492 802.229C690.539 802.229 680.524 798.233 672.804 791.632C619.341 824.144 556.573 842.877 489.428 842.877L484.857 842.845C293.282 840.418 138.437 685.574 136.01 493.998L135.981 489.431C135.981 294.229 294.225 135.985 489.428 135.985L493.994 136.013ZM489.428 178.399C317.649 178.399 178.395 317.653 178.395 489.431C178.396 661.208 317.65 800.464 489.428 800.464C551.508 800.463 609.339 782.269 657.886 750.93C661.289 729.914 679.515 713.868 701.492 713.868C702.549 713.868 703.597 713.905 704.635 713.978C763.687 657.367 800.459 577.695 800.46 489.431C800.46 317.654 661.205 178.4 489.428 178.399Z" fill="white"/>
</svg>
